<?xml version="1.0" standalone="no"?>
<!DOCTYPE svg PUBLIC "-//W3C//DTD SVG 20010904//EN"
 "http://www.w3.org/TR/2001/REC-SVG-20010904/DTD/svg10.dtd">
<svg version="1.0" xmlns="http://www.w3.org/2000/svg"
 width="1280.000000pt" height="1280.000000pt" viewBox="0 0 1280.000000 1280.000000"
 preserveAspectRatio="xMidYMid meet">
<g transform="translate(0.000000,1280.000000) scale(0.100000,-0.100000)"
fill="#000000" stroke="none">
<path d="M6150 12790 c-41 -5 -147 -13 -235 -20 -217 -16 -402 -39 -640 -80
-181 -31 -214 -44 -247 -99 -23 -36 -23 -40 -28 -481 l-5 -445 -45 -13 c-166
-48 -521 -171 -655 -227 -160 -67 -463 -214 -563 -274 -29 -17 -58 -31 -65
-31 -7 0 -140 129 -297 286 -157 157 -303 299 -324 315 -32 23 -49 29 -92 29
-48 0 -61 -5 -136 -57 -622 -424 -1269 -1068 -1697 -1689 -34 -50 -66 -108
-71 -128 -18 -79 -11 -89 321 -421 170 -171 309 -316 309 -322 0 -7 -14 -36
-31 -65 -60 -100 -207 -403 -274 -563 -56 -134 -179 -489 -227 -655 l-13 -45
-445 -5 c-493 -6 -487 -5 -528 -72 -38 -62 -107 -497 -132 -838 -6 -80 -15
-192 -20 -250 -13 -134 -13 -346 0 -480 5 -58 14 -170 20 -250 15 -208 39
-396 80 -636 31 -180 44 -213 99 -246 36 -23 40 -23 481 -28 l445 -5 13 -45
c48 -166 171 -521 227 -655 67 -160 214 -463 274 -563 17 -29 31 -58 31 -65 0
-7 -129 -140 -286 -297 -157 -157 -299 -303 -315 -324 -23 -31 -29 -49 -29
-92 0 -49 5 -60 67 -151 369 -543 963 -1157 1503 -1555 194 -143 265 -189 304
-198 79 -18 88 -11 421 321 171 170 316 309 322 309 7 0 36 -14 65 -31 100
-60 403 -207 563 -274 134 -56 489 -179 655 -227 l45 -13 5 -445 c6 -493 5
-487 72 -528 62 -38 497 -107 838 -132 80 -6 192 -15 250 -20 134 -13 346 -13
480 0 58 5 170 14 250 20 208 15 396 39 636 80 180 31 213 44 246 99 23 36 23
40 28 481 l5 445 45 13 c166 48 521 171 655 227 160 67 463 214 563 274 29 17
58 31 65 31 7 0 140 -129 297 -286 157 -157 303 -299 324 -315 32 -23 49 -29
92 -29 48 0 61 5 136 57 622 424 1269 1068 1697 1689 34 50 66 108 71 128 18
79 11 89 -321 421 -170 171 -309 316 -309 322 0 7 14 36 31 65 60 100 207 403
274 563 56 134 179 489 227 655 l13 45 445 5 c493 6 487 5 528 72 38 62 107
497 132 838 6 80 15 192 20 250 13 134 13 346 0 480 -5 58 -14 170 -20 250
-15 208 -39 396 -80 636 -31 180 -44 213 -99 246 -36 23 -40 23 -481 28 l-445
5 -13 45 c-48 166 -171 521 -227 655 -67 160 -214 463 -274 563 -17 29 -31 58
-31 65 0 7 129 140 286 297 157 157 299 303 315 324 23 31 29 49 29 92 0 49
-5 60 -67 151 -369 543 -963 1157 -1503 1555 -194 143 -265 189 -304 198 -79
18 -88 11 -421 -321 -171 -170 -316 -309 -322 -309 -7 0 -36 14 -65 31 -100
60 -403 207 -563 274 -134 56 -489 179 -655 227 l-45 13 -5 445 c-6 493 -5
487 -72 528 -62 38 -497 107 -838 132 -80 6 -192 15 -250 20 -120 11 -379 11
-490 0z m530 -3431 c871 -74 1684 -557 2186 -1299 276 -408 445 -878 494
-1375 14 -141 14 -429 0 -570 -68 -694 -366 -1323 -859 -1816 -496 -495 -1119
-790 -1816 -859 -141 -14 -429 -14 -570 0 -889 88 -1680 559 -2181 1300 -467
691 -621 1550 -423 2368 170 699 608 1332 1209 1745 421 288 903 463 1400 507
213 18 341 18 560 -1z"/>
</g>
</svg>
