<!--?xml version="1.0" encoding="utf-8"?-->
<!-- Generator: Adobe Illustrator 18.0.0, SVG Export Plug-In . SVG Version: 6.00 Build 0)  -->

<svg version="1.1" id="_x31_0" xmlns="http://www.w3.org/2000/svg" xmlns:xlink="http://www.w3.org/1999/xlink" x="0px" y="0px" viewBox="0 0 512 512" style="width: 256px; height: 256px; opacity: 1;" xml:space="preserve">
<style type="text/css">
	.st0{fill:#374149;}
</style>
<g>
	<path class="st0" d="M506.606,142.445l-68.527-68.524L369.555,5.393c-7.195-7.191-18.859-7.191-26.054,0L165.758,183.136
		L28.832,320.062L0,512l191.938-28.832l136.926-136.926l117.114-117.117l18.606-18.602l42.023-42.024
		C513.798,161.304,513.798,149.64,506.606,142.445z M196.594,441.117l7.57-52.039l200.883-200.883l22.328,22.329L310.258,327.636
		l-63.062,63.067L196.594,441.117z M70.821,315.285l113.543-113.543L301.477,84.624l22.329,22.328L122.922,307.839l-28.977,4.211
		L70.821,315.285z M52.246,341.301l0.484,3.328l45.438-6.606l12.906-1.832l-8.539,58.715l-2.5,16.874l0.047-0.004l-0.024,0.165
		l58.856-8.559l16.934-2.414l-8.477,58.301l1.719,0.246l1.214,0.294l-100.23,15.058l-32.946-32.942L52.246,341.301z
		 M142.586,379.172l-11.41,1.613l7.485-51.481l203.75-203.746l44.035,44.031l-203.75,203.75L142.586,379.172z M320.082,66.022
		l36.446-36.445l62.95,62.945l62.945,62.95l-36.445,36.446L320.082,66.022z" style="fill: rgb(75, 75, 75);"></path>
</g>
</svg>
